# xmcd
#
# Track frame offsets: 
#        150
#        14992
#        29937
#        44562
#        60232
#        76445
#        89177
#        108547
#        124305
#        151987
#        172915
#        196850
#        214072
#
# Disc length: 3139 seconds
#
# Revision: 1
# Processed by: cddbd v1.5.2PL0 Copyright (c) Steve Scherf et al.
# Submitted via: ExactAudioCopy v0.95a5
#
DISCID=bd0c410d
DTITLE=Sampler - 金曲柔情 2CD－1
DYEAR=2011
DGENRE=Musical
TTITLE0=交城山
TTITLE1=绣金匾
TTITLE2=兰花花
TTITLE3=枉凝媚
TTITLE4=在那桃花盛开的地方
TTITLE5=军港之夜
TTITLE6=十里屯
TTITLE7=美丽的草原我的家
TTITLE8=小河淌水
TTITLE9=小白菜
TTITLE10=赞歌
TTITLE11=牧羊姑娘
TTITLE12=彩云追月
EXTD=
EXTT0=
EXTT1=
EXTT2=
EXTT3=
EXTT4=
EXTT5=
EXTT6=
EXTT7=
EXTT8=
EXTT9=
EXTT10=
EXTT11=
EXTT12=
PLAYORDER=
